<?xml version="1.0" encoding="UTF-8" standalone="no"?>
<!-- Created with Inkscape (http://www.inkscape.org/) -->

<svg
   xmlns:dc="http://purl.org/dc/elements/1.1/"
   xmlns:cc="http://creativecommons.org/ns#"
   xmlns:rdf="http://www.w3.org/1999/02/22-rdf-syntax-ns#"
   xmlns:svg="http://www.w3.org/2000/svg"
   xmlns="http://www.w3.org/2000/svg"
   xmlns:xlink="http://www.w3.org/1999/xlink"
   xmlns:sodipodi="http://sodipodi.sourceforge.net/DTD/sodipodi-0.dtd"
   xmlns:inkscape="http://www.inkscape.org/namespaces/inkscape"
   width="744.09448819"
   height="1052.3622047"
   id="svg2"
   inkscape:label="Pozadí"
   version="1.1"
   inkscape:version="0.48.2 r9819"
   sodipodi:docname="sift_logo.svg">
  <defs
     id="defs3">
    <linearGradient
       inkscape:collect="always"
       id="linearGradient3808">
      <stop
         style="stop-color:#b14000;stop-opacity:1;"
         offset="0"
         id="stop3810" />
      <stop
         style="stop-color:#b14b00;stop-opacity:1"
         offset="1"
         id="stop3812" />
    </linearGradient>
    <radialGradient
       inkscape:collect="always"
       xlink:href="#linearGradient3808"
       id="radialGradient3814"
       cx="-100.566"
       cy="904.76581"
       fx="-100.566"
       fy="904.76581"
       r="300"
       gradientTransform="matrix(3.4230258,0.74516429,-0.66716913,3.0647428,847.30579,-1811.0483)"
       gradientUnits="userSpaceOnUse" />
  </defs>
  <sodipodi:namedview
     id="base"
     pagecolor="#ffffff"
     bordercolor="#666666"
     borderopacity="1.0"
     inkscape:pageopacity="0.0"
     inkscape:pageshadow="2"
     inkscape:zoom="0.49497475"
     inkscape:cx="41.64966"
     inkscape:cy="524.54569"
     inkscape:document-units="px"
     inkscape:current-layer="layer1"
     showgrid="false"
     inkscape:window-width="1530"
     inkscape:window-height="1001"
     inkscape:window-x="-4"
     inkscape:window-y="-4"
     inkscape:window-maximized="1"
     showguides="true"
     inkscape:guide-bbox="true">
    <sodipodi:guide
       orientation="0,1"
       position="270.72088,378.8072"
       id="guide3036" />
  </sodipodi:namedview>
  <metadata
     id="metadata6">
    <rdf:RDF>
      <cc:Work
         rdf:about="">
        <dc:format>image/svg+xml</dc:format>
        <dc:type
           rdf:resource="http://purl.org/dc/dcmitype/StillImage" />
        <dc:title></dc:title>
      </cc:Work>
    </rdf:RDF>
  </metadata>
  <g
     inkscape:label="Vrstva 1"
     inkscape:groupmode="layer"
     id="layer1">
    <path
       sodipodi:type="arc"
       style="fill:url(#radialGradient3814);fill-opacity:1;fill-rule:nonzero;stroke:none"
       id="path3038"
       sodipodi:cx="64.649765"
       sodipodi:cy="779.62097"
       sodipodi:rx="300"
       sodipodi:ry="257.14285"
       d="m 364.64977,779.62097 a 300,257.14285 0 1 1 -600,0 300,257.14285 0 1 1 600,0 z"
       transform="matrix(0.81929493,0,0,0.81929493,292.50495,-53.067824)"
       inkscape:export-filename="D:\projects\_symfony\doc\sift_logo.png"
       inkscape:export-xdpi="23.495811"
       inkscape:export-ydpi="23.495811" />
    <text
       xml:space="preserve"
       style="font-size:76.1175766px;font-style:normal;font-weight:normal;line-height:125%;letter-spacing:0px;word-spacing:0px;fill:#000000;fill-opacity:1;stroke:none;font-family:Sans"
       x="156.88103"
       y="352.05298"
       id="text2984"
       sodipodi:linespacing="125%"><tspan
         sodipodi:role="line"
         id="tspan2986"
         x="156.88103"
         y="352.05298"
         style="font-size:274.02328491px;font-style:normal;font-variant:normal;font-weight:normal;font-stretch:normal;font-family:World of Water;-inkscape-font-specification:World of Water">Sift</tspan></text>
    <g
       style="font-size:76.11757660000000700px;font-style:normal;font-weight:normal;line-height:125%;letter-spacing:0px;word-spacing:0px;fill:#fffefc;fill-opacity:1;stroke:none;font-family:Sans"
       id="text2984-1"
       inkscape:export-filename="D:\projects\_symfony\doc\sift_logo.png"
       inkscape:export-xdpi="23.495811"
       inkscape:export-ydpi="23.495811">
      <path
         d="m 301.92048,615.58806 c -1.4e-4,8.59115 -2.00854,16.44774 -6.0252,23.56978 -4.01693,7.12211 -9.49717,13.24069 -16.44073,18.35575 -6.9438,5.11509 -15.11955,9.08868 -24.52729,11.92078 -9.40793,2.83211 -19.40811,4.24816 -30.00057,4.24816 l -59.74189,0 0,-32.88145 59.18997,0 c 5.29619,3e-5 10.27329,-0.54772 14.93129,-1.64324 4.65784,-1.09546 8.67742,-2.69409 12.05876,-4.79591 3.38115,-2.10174 6.03068,-4.65928 7.94858,-7.67262 1.91771,-3.01324 2.87661,-6.52968 2.87671,-10.54933 -1e-4,-9.13181 -8.40443,-16.987 -25.21302,-23.5656 -14.98013,-5.8481 -26.35176,-10.27884 -34.11492,-13.29223 -7.76325,-3.0132 -12.01002,-4.70383 -12.74031,-5.07188 -16.8087,-9.67812 -25.21303,-22.92156 -25.21302,-39.73036 -1e-5,-7.85505 1.91919,-15.02452 5.7576,-21.50842 3.83838,-6.48358 8.99945,-12.0558 15.48322,-16.71669 6.48371,-4.66054 14.01834,-8.22297 22.60391,-10.68731 8.58547,-2.46397 17.72012,-3.69605 27.404,-3.69624 l 52.34105,0 0,32.32953 -51.78913,0 c -3.84126,1.6e-4 -7.72565,0.5479 -11.65318,1.64324 -3.92766,1.09564 -7.4441,2.55769 -10.54933,4.38614 -3.10533,1.82876 -5.66287,3.97653 -7.67261,6.44333 -2.00984,2.46709 -3.01474,5.06923 -3.0147,7.80642 -4e-5,3.65177 1.91916,7.3048 5.7576,10.95909 3.83835,3.65455 9.95832,7.31036 18.35993,10.96745 13.33536,4.56606 24.661,8.58425 33.97695,12.05459 9.31574,3.47055 16.94236,7.26016 22.87987,11.36885 5.93727,4.10888 10.27602,8.94938 13.01628,14.52153 2.73998,5.5723 4.11004,12.65118 4.11018,21.23664 z"
         style="font-size:274.02328491000003000px;font-variant:normal;font-stretch:normal;font-family:World of Water;-inkscape-font-specification:World of Water;fill:#fffefc;fill-opacity:1"
         id="path3010" />
      <path
         d="m 365.89974,513.74541 c -9e-5,9.5879 -2.94706,17.6027 -8.84097,24.04444 -5.89406,6.44219 -13.50102,9.66317 -22.8209,9.66295 -9.31997,2.2e-4 -16.79098,-3.15174 -22.41304,-9.45589 -5.62211,-6.30369 -8.43314,-14.25367 -8.43312,-23.84993 -2e-5,-9.59578 2.81101,-17.54574 8.43312,-23.84994 5.62206,-6.30364 13.22693,-9.4556 22.81461,-9.45589 9.32826,2.9e-4 16.87037,3.08532 22.62639,9.2551 5.75586,6.17035 8.63382,14.05338 8.63391,23.64916 z"
         style="font-size:274.02328491000003000px;font-variant:normal;font-stretch:normal;font-family:World of Water;-inkscape-font-specification:World of Water;fill:#fffefc;fill-opacity:1"
         id="path3012"
         inkscape:connector-curvature="0"
         sodipodi:nodetypes="ccccscccc" />
      <path
         d="m 459.44541,512.0098 -13.15426,0 c -3.28376,1.6e-4 -6.29566,0.73049 -9.03571,2.19098 -2.74019,1.46081 -5.11514,3.37862 -7.12487,5.75342 -2.00986,2.37511 -3.5625,5.11523 -4.65793,8.22036 -1.09555,3.10543 -1.64329,6.3027 -1.64323,9.59182 l 22.46174,0 0,29.05142 -22.46174,0 0,107.1407 -39.18681,0 0,-107.1407 -17.81218,0 0,-29.05142 17.81218,0 c 0.91429,-17.71725 6.53111,-31.41785 16.8505,-41.10182 10.31931,-9.68362 24.34047,-14.52552 42.06351,-14.52571 l 15.8888,0 z"
         style="font-size:274.02328491000003000px;font-variant:normal;font-stretch:normal;font-family:World of Water;-inkscape-font-specification:World of Water;fill:#fffefc;fill-opacity:1"
         id="path3014" />
      <path
         d="m 532.78425,673.55498 -16.16476,0 c -18.81574,0 -33.34004,-5.29766 -43.57295,-15.89298 -10.23296,-10.5953 -15.34943,-25.57675 -15.34942,-44.9444 l 0,-130.70314 39.1868,0 0,55.90033 27.404,0 0,28.49949 -27.404,0 0,55.07561 c -5e-5,2.55898 0.68568,5.11652 2.05718,7.67262 1.3714,2.55618 3.15262,4.88514 5.34366,6.98689 2.19092,2.10181 4.61187,3.83704 7.26285,5.20567 2.65086,1.3687 5.25299,2.05303 7.80642,2.053 l 13.43022,0 z"
         style="font-size:274.02328491000003000px;font-variant:normal;font-stretch:normal;font-family:World of Water;-inkscape-font-specification:World of Water;fill:#fffefc;fill-opacity:1"
         id="path3016"
         inkscape:connector-curvature="0"
         sodipodi:nodetypes="csssccccccccccccc" />
      <path
         inkscape:connector-curvature="0"
         d="m 352.72042,674.14916 -37.27178,0 0,-104.60143 37.27178,0 z"
         style="font-size:274.02328491000003000px;font-style:normal;font-variant:normal;font-weight:normal;font-stretch:normal;line-height:125%;letter-spacing:0px;word-spacing:0px;fill:#fffefc;fill-opacity:1;stroke:none;font-family:World of Water;-inkscape-font-specification:World of Water"
         id="path3012-4"
         sodipodi:nodetypes="ccccc" />
    </g>
  </g>
</svg>
